<?xml version="1.0" encoding="utf-8" standalone="no"?>
<!DOCTYPE svg PUBLIC "-//W3C//DTD SVG 1.1//EN"
  "http://www.w3.org/Graphics/SVG/1.1/DTD/svg11.dtd">
<!-- Created with matplotlib (http://matplotlib.org/) -->
<svg height="345.6pt" version="1.1" viewBox="0 0 460.8 345.6" width="460.8pt" xmlns="http://www.w3.org/2000/svg" xmlns:xlink="http://www.w3.org/1999/xlink">
 <defs>
  <style type="text/css">
*{stroke-linecap:butt;stroke-linejoin:round;}
  </style>
 </defs>
 <g id="figure_1">
  <g id="patch_1">
   <path d="M 0 345.6 
L 460.8 345.6 
L 460.8 0 
L 0 0 
z
" style="fill:#ffffff;"/>
  </g>
  <g id="axes_1">
   <g id="patch_2">
    <path d="M 57.6 307.584 
L 414.72 307.584 
L 414.72 41.472 
L 57.6 41.472 
z
" style="fill:#ffffff;"/>
   </g>
   <g id="PolyCollection_1">
    <defs>
     <path d="M 414.72 -38.016 
L 414.72 -88.704 
L 106.0096 -88.704 
L 106.0096 -194.176 
L 105.6128 -194.176 
L 105.6128 -193.682193 
L 105.6128 -193.682193 
L 105.6128 -194.476408 
L 105.6128 -194.476408 
L 105.6128 -195.278769 
L 105.216 -195.278769 
L 105.216 -194.78301 
L 104.8192 -194.78301 
L 104.8192 -194.282114 
L 104.8192 -194.282114 
L 104.8192 -195.096 
L 104.8192 -195.096 
L 104.8192 -195.918408 
L 104.4224 -195.918408 
L 104.4224 -195.415579 
L 104.4224 -195.415579 
L 104.4224 -196.248381 
L 104.0256 -196.248381 
L 104.0256 -195.741957 
L 104.0256 -195.741957 
L 104.0256 -196.585412 
L 104.0256 -196.585412 
L 104.0256 -197.437935 
L 103.6288 -197.437935 
L 103.6288 -196.92973 
L 103.232 -196.92973 
L 103.232 -196.416 
L 102.8352 -196.416 
L 102.8352 -195.896656 
L 102.4384 -195.896656 
L 102.4384 -195.371604 
L 102.4384 -195.371604 
L 102.4384 -196.240972 
L 102.0416 -196.240972 
L 102.0416 -195.712 
L 101.6448 -195.712 
L 101.6448 -195.177117 
L 101.248 -195.177117 
L 101.248 -194.636225 
L 101.248 -194.636225 
L 101.248 -195.521085 
L 100.8512 -195.521085 
L 100.8512 -194.976 
L 100.4544 -194.976 
L 100.4544 -194.424686 
L 100.0576 -194.424686 
L 100.0576 -193.867034 
L 99.6608 -193.867034 
L 99.6608 -193.302936 
L 99.6608 -193.302936 
L 99.6608 -194.205767 
L 99.264 -194.205767 
L 99.264 -193.637053 
L 98.8672 -193.637053 
L 98.8672 -193.061647 
L 98.8672 -193.061647 
L 98.8672 -193.979077 
L 98.4704 -193.979077 
L 98.4704 -193.398857 
L 98.4704 -193.398857 
L 98.4704 -194.329293 
L 98.4704 -194.329293 
L 98.4704 -195.27094 
L 98.0736 -195.27094 
L 98.0736 -194.688 
L 98.0736 -194.688 
L 98.0736 -195.643317 
L 97.6768 -195.643317 
L 97.6768 -195.055509 
L 97.28 -195.055509 
L 97.28 -194.460444 
L 96.8832 -194.460444 
L 96.8832 -193.857988 
L 96.8832 -193.857988 
L 96.8832 -194.832 
L 96.4864 -194.832 
L 96.4864 -194.224302 
L 96.0896 -194.224302 
L 96.0896 -193.608911 
L 96.0896 -193.608911 
L 96.0896 -194.599949 
L 96.0896 -194.599949 
L 96.0896 -195.603692 
L 96.0896 -195.603692 
L 96.0896 -196.620387 
L 95.6928 -196.620387 
L 95.6928 -196.004571 
L 95.6928 -196.004571 
L 95.6928 -197.037176 
L 95.296 -197.037176 
L 95.296 -196.416 
L 95.296 -196.416 
L 95.296 -197.465007 
L 94.8992 -197.465007 
L 94.8992 -196.8384 
L 94.5024 -196.8384 
L 94.5024 -196.203383 
L 94.5024 -196.203383 
L 94.5024 -197.272216 
L 94.1056 -197.272216 
L 94.1056 -196.63151 
L 94.1056 -196.63151 
L 94.1056 -197.717918 
L 93.7088 -197.717918 
L 93.7088 -197.071448 
L 93.312 -197.071448 
L 93.312 -196.416 
L 93.312 -196.416 
L 93.312 -197.523692 
L 93.312 -197.523692 
L 93.312 -198.646986 
L 92.9152 -198.646986 
L 92.9152 -197.988766 
L 92.5184 -197.988766 
L 92.5184 -197.321143 
L 92.1216 -197.321143 
L 92.1216 -196.643914 
L 91.7248 -196.643914 
L 91.7248 -195.95687 
L 91.328 -195.95687 
L 91.328 -195.259796 
L 91.328 -195.259796 
L 91.328 -196.416 
L 90.9312 -196.416 
L 90.9312 -195.712 
L 90.5344 -195.712 
L 90.5344 -194.997493 
L 90.1376 -194.997493 
L 90.1376 -194.272241 
L 90.1376 -194.272241 
L 90.1376 -195.456 
L 90.1376 -195.456 
L 90.1376 -196.657832 
L 89.7408 -196.657832 
L 89.7408 -195.928615 
L 89.344 -195.928615 
L 89.344 -195.188093 
L 88.9472 -195.188093 
L 88.9472 -194.436 
L 88.9472 -194.436 
L 88.9472 -195.667654 
L 88.9472 -195.667654 
L 88.9472 -196.918857 
L 88.9472 -196.918857 
L 88.9472 -198.19008 
L 88.9472 -198.19008 
L 88.9472 -199.481806 
L 88.9472 -199.481806 
L 88.9472 -200.794537 
L 88.5504 -200.794537 
L 88.5504 -200.05141 
L 88.1536 -200.05141 
L 88.1536 -199.296 
L 87.7568 -199.296 
L 87.7568 -198.528 
L 87.36 -198.528 
L 87.36 -197.747092 
L 86.9632 -197.747092 
L 86.9632 -196.952949 
L 86.5664 -196.952949 
L 86.5664 -196.145231 
L 86.1696 -196.145231 
L 86.1696 -195.323586 
L 86.1696 -195.323586 
L 86.1696 -196.691478 
L 86.1696 -196.691478 
L 86.1696 -198.083368 
L 85.7728 -198.083368 
L 85.7728 -197.257062 
L 85.376 -197.257062 
L 85.376 -196.416 
L 84.9792 -196.416 
L 84.9792 -195.559784 
L 84.5824 -195.559784 
L 84.5824 -194.688 
L 84.1856 -194.688 
L 84.1856 -193.80022 
L 84.1856 -193.80022 
L 84.1856 -195.242667 
L 83.7888 -195.242667 
L 83.7888 -194.343477 
L 83.7888 -194.343477 
L 83.7888 -195.818264 
L 83.392 -195.818264 
L 83.392 -194.907429 
L 83.392 -194.907429 
L 83.392 -196.416 
L 82.9952 -196.416 
L 82.9952 -195.493282 
L 82.5984 -195.493282 
L 82.5984 -194.552471 
L 82.5984 -194.552471 
L 82.5984 -196.102337 
L 82.2016 -196.102337 
L 82.2016 -195.1488 
L 81.8048 -195.1488 
L 81.8048 -194.176 
L 81.408 -194.176 
L 81.408 -193.183347 
L 81.408 -193.183347 
L 81.408 -194.78301 
L 81.0112 -194.78301 
L 81.0112 -193.776 
L 80.6144 -193.776 
L 80.6144 -192.747789 
L 80.2176 -192.747789 
L 80.2176 -191.697702 
L 79.8208 -191.697702 
L 79.8208 -190.625032 
L 79.424 -190.625032 
L 79.424 -189.529043 
L 79.424 -189.529043 
L 79.424 -191.194022 
L 79.0272 -191.194022 
L 79.0272 -190.08 
L 79.0272 -190.08 
L 79.0272 -191.788584 
L 78.6304 -191.788584 
L 78.6304 -190.656 
L 78.2336 -190.656 
L 78.2336 -189.497379 
L 77.8368 -189.497379 
L 77.8368 -188.311814 
L 77.44 -188.311814 
L 77.44 -187.098353 
L 77.0432 -187.098353 
L 77.0432 -185.856 
L 76.6464 -185.856 
L 76.6464 -184.583711 
L 76.2496 -184.583711 
L 76.2496 -183.28039 
L 75.8528 -183.28039 
L 75.8528 -181.944889 
L 75.8528 -181.944889 
L 75.8528 -183.744 
L 75.456 -183.744 
L 75.456 -182.380557 
L 75.0592 -182.380557 
L 75.0592 -180.982154 
L 74.6624 -180.982154 
L 74.6624 -179.547429 
L 74.2656 -179.547429 
L 74.2656 -178.074947 
L 74.2656 -178.074947 
L 74.2656 -179.9424 
L 74.2656 -179.9424 
L 74.2656 -181.860324 
L 74.2656 -181.860324 
L 74.2656 -183.830795 
L 74.2656 -183.830795 
L 74.2656 -185.856 
L 74.2656 -185.856 
L 74.2656 -187.938254 
L 74.2656 -187.938254 
L 74.2656 -190.08 
L 74.2656 -190.08 
L 74.2656 -192.283826 
L 74.2656 -192.283826 
L 74.2656 -194.552471 
L 74.2656 -194.552471 
L 74.2656 -196.888836 
L 73.8688 -196.888836 
L 73.8688 -195.456 
L 73.8688 -195.456 
L 73.8688 -197.878154 
L 73.472 -197.878154 
L 73.472 -196.416 
L 73.472 -196.416 
L 73.472 -198.930286 
L 73.472 -198.930286 
L 73.472 -201.525677 
L 73.0752 -201.525677 
L 73.0752 -200.05141 
L 72.6784 -200.05141 
L 72.6784 -198.528 
L 72.6784 -198.528 
L 72.6784 -201.248542 
L 72.6784 -201.248542 
L 72.6784 -204.062897 
L 72.2816 -204.062897 
L 72.2816 -202.529684 
L 72.2816 -202.529684 
L 72.2816 -205.467429 
L 71.8848 -205.467429 
L 71.8848 -203.904 
L 71.488 -203.904 
L 71.488 -202.282667 
L 71.488 -202.282667 
L 71.488 -205.382038 
L 71.488 -205.382038 
L 71.488 -208.600615 
L 71.488 -208.600615 
L 71.488 -211.945412 
L 71.488 -211.945412 
L 71.488 -215.424 
L 71.0912 -215.424 
L 71.0912 -213.872327 
L 70.6944 -213.872327 
L 70.6944 -212.256 
L 70.6944 -212.256 
L 70.6944 -215.963234 
L 70.6944 -215.963234 
L 70.6944 -219.831652 
L 70.2976 -219.831652 
L 70.2976 -218.24 
L 69.9008 -218.24 
L 69.9008 -216.576 
L 69.9008 -216.576 
L 69.9008 -220.728558 
L 69.9008 -220.728558 
L 69.9008 -225.078857 
L 69.504 -225.078857 
L 69.504 -223.459902 
L 69.1072 -223.459902 
L 69.1072 -221.76 
L 68.7104 -221.76 
L 68.7104 -219.972923 
L 68.3136 -219.972923 
L 68.3136 -218.091789 
L 68.3136 -218.091789 
L 68.3136 -222.958703 
L 68.3136 -222.958703 
L 68.3136 -228.096 
L 67.9168 -228.096 
L 67.9168 -226.285714 
L 67.9168 -226.285714 
L 67.9168 -231.823059 
L 67.52 -231.823059 
L 67.52 -230.016 
L 67.1232 -230.016 
L 67.1232 -228.096 
L 66.7264 -228.096 
L 66.7264 -226.052129 
L 66.7264 -226.052129 
L 66.7264 -232.32 
L 66.3296 -232.32 
L 66.3296 -230.280828 
L 65.9328 -230.280828 
L 65.9328 -228.096 
L 65.9328 -228.096 
L 65.9328 -235.136 
L 65.536 -235.136 
L 65.536 -232.969846 
L 65.536 -232.969846 
L 65.536 -240.768 
L 65.1392 -240.768 
L 65.1392 -238.656 
L 64.7424 -238.656 
L 64.7424 -236.360348 
L 64.3456 -236.360348 
L 64.3456 -233.856 
L 63.9488 -233.856 
L 63.9488 -231.113143 
L 63.552 -231.113143 
L 63.552 -228.096 
L 63.552 -228.096 
L 63.552 -238.100211 
L 63.1552 -238.100211 
L 63.1552 -235.136 
L 62.7584 -235.136 
L 62.7584 -231.823059 
L 62.3616 -231.823059 
L 62.3616 -228.096 
L 62.3616 -228.096 
L 62.3616 -240.768 
L 61.9648 -240.768 
L 61.9648 -237.147429 
L 61.568 -237.147429 
L 61.568 -232.969846 
L 61.1712 -232.969846 
L 61.1712 -228.096 
L 60.7744 -228.096 
L 60.7744 -222.336 
L 60.7744 -222.336 
L 60.7744 -240.768 
L 60.3776 -240.768 
L 60.3776 -235.136 
L 59.9808 -235.136 
L 59.9808 -228.096 
L 59.584 -228.096 
L 59.584 -219.044571 
L 59.584 -219.044571 
L 59.584 -249.216 
L 59.1872 -249.216 
L 59.1872 -240.768 
L 58.7904 -240.768 
L 58.7904 -228.096 
L 58.3936 -228.096 
L 58.3936 -206.976 
L 57.9968 -206.976 
L 57.9968 -164.736 
L 57.6 -164.736 
L 57.6 -38.016 
L 57.6 -38.016 
L 57.6 -291.456 
L 57.6 -38.016 
L 57.6 -38.016 
L 57.6 -38.016 
L 57.6 -38.016 
L 57.6 -38.016 
L 57.9968 -38.016 
L 57.9968 -38.016 
L 58.3936 -38.016 
L 58.3936 -38.016 
L 58.7904 -38.016 
L 58.7904 -38.016 
L 59.1872 -38.016 
L 59.1872 -38.016 
L 59.584 -38.016 
L 59.584 -38.016 
L 59.584 -38.016 
L 59.584 -38.016 
L 59.9808 -38.016 
L 59.9808 -38.016 
L 60.3776 -38.016 
L 60.3776 -38.016 
L 60.7744 -38.016 
L 60.7744 -38.016 
L 60.7744 -38.016 
L 60.7744 -38.016 
L 61.1712 -38.016 
L 61.1712 -38.016 
L 61.568 -38.016 
L 61.568 -38.016 
L 61.9648 -38.016 
L 61.9648 -38.016 
L 62.3616 -38.016 
L 62.3616 -38.016 
L 62.3616 -38.016 
L 62.3616 -38.016 
L 62.7584 -38.016 
L 62.7584 -38.016 
L 63.1552 -38.016 
L 63.1552 -38.016 
L 63.552 -38.016 
L 63.552 -38.016 
L 63.552 -38.016 
L 63.552 -38.016 
L 63.9488 -38.016 
L 63.9488 -38.016 
L 64.3456 -38.016 
L 64.3456 -38.016 
L 64.7424 -38.016 
L 64.7424 -38.016 
L 65.1392 -38.016 
L 65.1392 -38.016 
L 65.536 -38.016 
L 65.536 -38.016 
L 65.536 -38.016 
L 65.536 -38.016 
L 65.9328 -38.016 
L 65.9328 -38.016 
L 65.9328 -38.016 
L 65.9328 -38.016 
L 66.3296 -38.016 
L 66.3296 -38.016 
L 66.7264 -38.016 
L 66.7264 -38.016 
L 66.7264 -38.016 
L 66.7264 -38.016 
L 67.1232 -38.016 
L 67.1232 -38.016 
L 67.52 -38.016 
L 67.52 -38.016 
L 67.9168 -38.016 
L 67.9168 -38.016 
L 67.9168 -38.016 
L 67.9168 -38.016 
L 68.3136 -38.016 
L 68.3136 -38.016 
L 68.3136 -38.016 
L 68.3136 -38.016 
L 68.3136 -38.016 
L 68.3136 -38.016 
L 68.7104 -38.016 
L 68.7104 -38.016 
L 69.1072 -38.016 
L 69.1072 -38.016 
L 69.504 -38.016 
L 69.504 -38.016 
L 69.9008 -38.016 
L 69.9008 -38.016 
L 69.9008 -38.016 
L 69.9008 -38.016 
L 69.9008 -38.016 
L 69.9008 -38.016 
L 70.2976 -38.016 
L 70.2976 -38.016 
L 70.6944 -38.016 
L 70.6944 -38.016 
L 70.6944 -38.016 
L 70.6944 -38.016 
L 70.6944 -38.016 
L 70.6944 -38.016 
L 71.0912 -38.016 
L 71.0912 -38.016 
L 71.488 -38.016 
L 71.488 -38.016 
L 71.488 -38.016 
L 71.488 -38.016 
L 71.488 -38.016 
L 71.488 -38.016 
L 71.488 -38.016 
L 71.488 -38.016 
L 71.488 -38.016 
L 71.488 -38.016 
L 71.8848 -38.016 
L 71.8848 -38.016 
L 72.2816 -38.016 
L 72.2816 -38.016 
L 72.2816 -38.016 
L 72.2816 -38.016 
L 72.6784 -38.016 
L 72.6784 -38.016 
L 72.6784 -38.016 
L 72.6784 -38.016 
L 72.6784 -38.016 
L 72.6784 -38.016 
L 73.0752 -38.016 
L 73.0752 -38.016 
L 73.472 -38.016 
L 73.472 -38.016 
L 73.472 -38.016 
L 73.472 -38.016 
L 73.472 -38.016 
L 73.472 -38.016 
L 73.8688 -38.016 
L 73.8688 -38.016 
L 73.8688 -38.016 
L 73.8688 -38.016 
L 74.2656 -38.016 
L 74.2656 -38.016 
L 74.2656 -38.016 
L 74.2656 -38.016 
L 74.2656 -38.016 
L 74.2656 -38.016 
L 74.2656 -38.016 
L 74.2656 -38.016 
L 74.2656 -38.016 
L 74.2656 -38.016 
L 74.2656 -38.016 
L 74.2656 -38.016 
L 74.2656 -38.016 
L 74.2656 -38.016 
L 74.2656 -38.016 
L 74.2656 -38.016 
L 74.2656 -38.016 
L 74.2656 -38.016 
L 74.2656 -38.016 
L 74.2656 -38.016 
L 74.6624 -38.016 
L 74.6624 -38.016 
L 75.0592 -38.016 
L 75.0592 -38.016 
L 75.456 -38.016 
L 75.456 -38.016 
L 75.8528 -38.016 
L 75.8528 -38.016 
L 75.8528 -38.016 
L 75.8528 -38.016 
L 76.2496 -38.016 
L 76.2496 -38.016 
L 76.6464 -38.016 
L 76.6464 -38.016 
L 77.0432 -38.016 
L 77.0432 -38.016 
L 77.44 -38.016 
L 77.44 -38.016 
L 77.8368 -38.016 
L 77.8368 -38.016 
L 78.2336 -38.016 
L 78.2336 -38.016 
L 78.6304 -38.016 
L 78.6304 -38.016 
L 79.0272 -38.016 
L 79.0272 -38.016 
L 79.0272 -38.016 
L 79.0272 -38.016 
L 79.424 -38.016 
L 79.424 -38.016 
L 79.424 -38.016 
L 79.424 -38.016 
L 79.8208 -38.016 
L 79.8208 -38.016 
L 80.2176 -38.016 
L 80.2176 -38.016 
L 80.6144 -38.016 
L 80.6144 -38.016 
L 81.0112 -38.016 
L 81.0112 -38.016 
L 81.408 -38.016 
L 81.408 -38.016 
L 81.408 -38.016 
L 81.408 -38.016 
L 81.8048 -38.016 
L 81.8048 -38.016 
L 82.2016 -38.016 
L 82.2016 -38.016 
L 82.5984 -38.016 
L 82.5984 -38.016 
L 82.5984 -38.016 
L 82.5984 -38.016 
L 82.9952 -38.016 
L 82.9952 -38.016 
L 83.392 -38.016 
L 83.392 -38.016 
L 83.392 -38.016 
L 83.392 -38.016 
L 83.7888 -38.016 
L 83.7888 -38.016 
L 83.7888 -38.016 
L 83.7888 -38.016 
L 84.1856 -38.016 
L 84.1856 -38.016 
L 84.1856 -38.016 
L 84.1856 -38.016 
L 84.5824 -38.016 
L 84.5824 -38.016 
L 84.9792 -38.016 
L 84.9792 -38.016 
L 85.376 -38.016 
L 85.376 -38.016 
L 85.7728 -38.016 
L 85.7728 -38.016 
L 86.1696 -38.016 
L 86.1696 -38.016 
L 86.1696 -38.016 
L 86.1696 -38.016 
L 86.1696 -38.016 
L 86.1696 -38.016 
L 86.5664 -38.016 
L 86.5664 -38.016 
L 86.9632 -38.016 
L 86.9632 -38.016 
L 87.36 -38.016 
L 87.36 -38.016 
L 87.7568 -38.016 
L 87.7568 -38.016 
L 88.1536 -38.016 
L 88.1536 -38.016 
L 88.5504 -38.016 
L 88.5504 -38.016 
L 88.9472 -38.016 
L 88.9472 -38.016 
L 88.9472 -38.016 
L 88.9472 -38.016 
L 88.9472 -38.016 
L 88.9472 -38.016 
L 88.9472 -38.016 
L 88.9472 -38.016 
L 88.9472 -38.016 
L 88.9472 -38.016 
L 88.9472 -38.016 
L 88.9472 -38.016 
L 89.344 -38.016 
L 89.344 -38.016 
L 89.7408 -38.016 
L 89.7408 -38.016 
L 90.1376 -38.016 
L 90.1376 -38.016 
L 90.1376 -38.016 
L 90.1376 -38.016 
L 90.1376 -38.016 
L 90.1376 -38.016 
L 90.5344 -38.016 
L 90.5344 -38.016 
L 90.9312 -38.016 
L 90.9312 -38.016 
L 91.328 -38.016 
L 91.328 -38.016 
L 91.328 -38.016 
L 91.328 -38.016 
L 91.7248 -38.016 
L 91.7248 -38.016 
L 92.1216 -38.016 
L 92.1216 -38.016 
L 92.5184 -38.016 
L 92.5184 -38.016 
L 92.9152 -38.016 
L 92.9152 -38.016 
L 93.312 -38.016 
L 93.312 -38.016 
L 93.312 -38.016 
L 93.312 -38.016 
L 93.312 -38.016 
L 93.312 -38.016 
L 93.7088 -38.016 
L 93.7088 -38.016 
L 94.1056 -38.016 
L 94.1056 -38.016 
L 94.1056 -38.016 
L 94.1056 -38.016 
L 94.5024 -38.016 
L 94.5024 -38.016 
L 94.5024 -38.016 
L 94.5024 -38.016 
L 94.8992 -38.016 
L 94.8992 -38.016 
L 95.296 -38.016 
L 95.296 -38.016 
L 95.296 -38.016 
L 95.296 -38.016 
L 95.6928 -38.016 
L 95.6928 -38.016 
L 95.6928 -38.016 
L 95.6928 -38.016 
L 96.0896 -38.016 
L 96.0896 -38.016 
L 96.0896 -38.016 
L 96.0896 -38.016 
L 96.0896 -38.016 
L 96.0896 -38.016 
L 96.0896 -38.016 
L 96.0896 -38.016 
L 96.4864 -38.016 
L 96.4864 -38.016 
L 96.8832 -38.016 
L 96.8832 -38.016 
L 96.8832 -38.016 
L 96.8832 -38.016 
L 97.28 -38.016 
L 97.28 -38.016 
L 97.6768 -38.016 
L 97.6768 -38.016 
L 98.0736 -38.016 
L 98.0736 -38.016 
L 98.0736 -38.016 
L 98.0736 -38.016 
L 98.4704 -38.016 
L 98.4704 -38.016 
L 98.4704 -38.016 
L 98.4704 -38.016 
L 98.4704 -38.016 
L 98.4704 -38.016 
L 98.8672 -38.016 
L 98.8672 -38.016 
L 98.8672 -38.016 
L 98.8672 -38.016 
L 99.264 -38.016 
L 99.264 -38.016 
L 99.6608 -38.016 
L 99.6608 -38.016 
L 99.6608 -38.016 
L 99.6608 -38.016 
L 100.0576 -38.016 
L 100.0576 -38.016 
L 100.4544 -38.016 
L 100.4544 -38.016 
L 100.8512 -38.016 
L 100.8512 -38.016 
L 101.248 -38.016 
L 101.248 -38.016 
L 101.248 -38.016 
L 101.248 -38.016 
L 101.6448 -38.016 
L 101.6448 -38.016 
L 102.0416 -38.016 
L 102.0416 -38.016 
L 102.4384 -38.016 
L 102.4384 -38.016 
L 102.4384 -38.016 
L 102.4384 -38.016 
L 102.8352 -38.016 
L 102.8352 -38.016 
L 103.232 -38.016 
L 103.232 -38.016 
L 103.6288 -38.016 
L 103.6288 -38.016 
L 104.0256 -38.016 
L 104.0256 -38.016 
L 104.0256 -38.016 
L 104.0256 -38.016 
L 104.0256 -38.016 
L 104.0256 -38.016 
L 104.4224 -38.016 
L 104.4224 -38.016 
L 104.4224 -38.016 
L 104.4224 -38.016 
L 104.8192 -38.016 
L 104.8192 -38.016 
L 104.8192 -38.016 
L 104.8192 -38.016 
L 104.8192 -38.016 
L 104.8192 -38.016 
L 105.216 -38.016 
L 105.216 -38.016 
L 105.6128 -38.016 
L 105.6128 -38.016 
L 105.6128 -38.016 
L 105.6128 -38.016 
L 105.6128 -38.016 
L 105.6128 -38.016 
L 106.0096 -38.016 
L 106.0096 -38.016 
L 414.72 -38.016 
z
" id="m63e8d04b89" style="stroke:#0000ff;stroke-opacity:0.2;"/>
    </defs>
    <g clip-path="url(#p506108b52a)">
     <use style="fill:#0000ff;fill-opacity:0.2;stroke:#0000ff;stroke-opacity:0.2;" x="0" xlink:href="#m63e8d04b89" y="345.6"/>
    </g>
   </g>
   <g id="matplotlib.axis_1">
    <g id="xtick_1">
     <g id="line2d_1">
      <defs>
       <path d="M 0 0 
L 0 3.5 
" id="mb14e0e4c82" style="stroke:#000000;stroke-width:0.8;"/>
      </defs>
      <g>
       <use style="stroke:#000000;stroke-width:0.8;" x="57.6" xlink:href="#mb14e0e4c82" y="307.584"/>
      </g>
     </g>
     <g id="text_1">
      <!-- 0.0 -->
      <defs>
       <path d="M 31.78125 66.40625 
Q 24.171875 66.40625 20.328125 58.90625 
Q 16.5 51.421875 16.5 36.375 
Q 16.5 21.390625 20.328125 13.890625 
Q 24.171875 6.390625 31.78125 6.390625 
Q 39.453125 6.390625 43.28125 13.890625 
Q 47.125 21.390625 47.125 36.375 
Q 47.125 51.421875 43.28125 58.90625 
Q 39.453125 66.40625 31.78125 66.40625 
z
M 31.78125 74.21875 
Q 44.046875 74.21875 50.515625 64.515625 
Q 56.984375 54.828125 56.984375 36.375 
Q 56.984375 17.96875 50.515625 8.265625 
Q 44.046875 -1.421875 31.78125 -1.421875 
Q 19.53125 -1.421875 13.0625 8.265625 
Q 6.59375 17.96875 6.59375 36.375 
Q 6.59375 54.828125 13.0625 64.515625 
Q 19.53125 74.21875 31.78125 74.21875 
z
" id="DejaVuSans-30"/>
       <path d="M 10.6875 12.40625 
L 21 12.40625 
L 21 0 
L 10.6875 0 
z
" id="DejaVuSans-2e"/>
      </defs>
      <g transform="translate(48.058125 323.702125)scale(0.12 -0.12)">
       <use xlink:href="#DejaVuSans-30"/>
       <use x="63.623047" xlink:href="#DejaVuSans-2e"/>
       <use x="95.410156" xlink:href="#DejaVuSans-30"/>
      </g>
     </g>
    </g>
    <g id="xtick_2">
     <g id="line2d_2">
      <g>
       <use style="stroke:#000000;stroke-width:0.8;" x="129.024" xlink:href="#mb14e0e4c82" y="307.584"/>
      </g>
     </g>
     <g id="text_2">
      <!-- 0.2 -->
      <defs>
       <path d="M 19.1875 8.296875 
L 53.609375 8.296875 
L 53.609375 0 
L 7.328125 0 
L 7.328125 8.296875 
Q 12.9375 14.109375 22.625 23.890625 
Q 32.328125 33.6875 34.8125 36.53125 
Q 39.546875 41.84375 41.421875 45.53125 
Q 43.3125 49.21875 43.3125 52.78125 
Q 43.3125 58.59375 39.234375 62.25 
Q 35.15625 65.921875 28.609375 65.921875 
Q 23.96875 65.921875 18.8125 64.3125 
Q 13.671875 62.703125 7.8125 59.421875 
L 7.8125 69.390625 
Q 13.765625 71.78125 18.9375 73 
Q 24.125 74.21875 28.421875 74.21875 
Q 39.75 74.21875 46.484375 68.546875 
Q 53.21875 62.890625 53.21875 53.421875 
Q 53.21875 48.921875 51.53125 44.890625 
Q 49.859375 40.875 45.40625 35.40625 
Q 44.1875 33.984375 37.640625 27.21875 
Q 31.109375 20.453125 19.1875 8.296875 
z
" id="DejaVuSans-32"/>
      </defs>
      <g transform="translate(119.482125 323.702125)scale(0.12 -0.12)">
       <use xlink:href="#DejaVuSans-30"/>
       <use x="63.623047" xlink:href="#DejaVuSans-2e"/>
       <use x="95.410156" xlink:href="#DejaVuSans-32"/>
      </g>
     </g>
    </g>
    <g id="xtick_3">
     <g id="line2d_3">
      <g>
       <use style="stroke:#000000;stroke-width:0.8;" x="200.448" xlink:href="#mb14e0e4c82" y="307.584"/>
      </g>
     </g>
     <g id="text_3">
      <!-- 0.4 -->
      <defs>
       <path d="M 37.796875 64.3125 
L 12.890625 25.390625 
L 37.796875 25.390625 
z
M 35.203125 72.90625 
L 47.609375 72.90625 
L 47.609375 25.390625 
L 58.015625 25.390625 
L 58.015625 17.1875 
L 47.609375 17.1875 
L 47.609375 0 
L 37.796875 0 
L 37.796875 17.1875 
L 4.890625 17.1875 
L 4.890625 26.703125 
z
" id="DejaVuSans-34"/>
      </defs>
      <g transform="translate(190.906125 323.702125)scale(0.12 -0.12)">
       <use xlink:href="#DejaVuSans-30"/>
       <use x="63.623047" xlink:href="#DejaVuSans-2e"/>
       <use x="95.410156" xlink:href="#DejaVuSans-34"/>
      </g>
     </g>
    </g>
    <g id="xtick_4">
     <g id="line2d_4">
      <g>
       <use style="stroke:#000000;stroke-width:0.8;" x="271.872" xlink:href="#mb14e0e4c82" y="307.584"/>
      </g>
     </g>
     <g id="text_4">
      <!-- 0.6 -->
      <defs>
       <path d="M 33.015625 40.375 
Q 26.375 40.375 22.484375 35.828125 
Q 18.609375 31.296875 18.609375 23.390625 
Q 18.609375 15.53125 22.484375 10.953125 
Q 26.375 6.390625 33.015625 6.390625 
Q 39.65625 6.390625 43.53125 10.953125 
Q 47.40625 15.53125 47.40625 23.390625 
Q 47.40625 31.296875 43.53125 35.828125 
Q 39.65625 40.375 33.015625 40.375 
z
M 52.59375 71.296875 
L 52.59375 62.3125 
Q 48.875 64.0625 45.09375 64.984375 
Q 41.3125 65.921875 37.59375 65.921875 
Q 27.828125 65.921875 22.671875 59.328125 
Q 17.53125 52.734375 16.796875 39.40625 
Q 19.671875 43.65625 24.015625 45.921875 
Q 28.375 48.1875 33.59375 48.1875 
Q 44.578125 48.1875 50.953125 41.515625 
Q 57.328125 34.859375 57.328125 23.390625 
Q 57.328125 12.15625 50.6875 5.359375 
Q 44.046875 -1.421875 33.015625 -1.421875 
Q 20.359375 -1.421875 13.671875 8.265625 
Q 6.984375 17.96875 6.984375 36.375 
Q 6.984375 53.65625 15.1875 63.9375 
Q 23.390625 74.21875 37.203125 74.21875 
Q 40.921875 74.21875 44.703125 73.484375 
Q 48.484375 72.75 52.59375 71.296875 
z
" id="DejaVuSans-36"/>
      </defs>
      <g transform="translate(262.330125 323.702125)scale(0.12 -0.12)">
       <use xlink:href="#DejaVuSans-30"/>
       <use x="63.623047" xlink:href="#DejaVuSans-2e"/>
       <use x="95.410156" xlink:href="#DejaVuSans-36"/>
      </g>
     </g>
    </g>
    <g id="xtick_5">
     <g id="line2d_5">
      <g>
       <use style="stroke:#000000;stroke-width:0.8;" x="343.296" xlink:href="#mb14e0e4c82" y="307.584"/>
      </g>
     </g>
     <g id="text_5">
      <!-- 0.8 -->
      <defs>
       <path d="M 31.78125 34.625 
Q 24.75 34.625 20.71875 30.859375 
Q 16.703125 27.09375 16.703125 20.515625 
Q 16.703125 13.921875 20.71875 10.15625 
Q 24.75 6.390625 31.78125 6.390625 
Q 38.8125 6.390625 42.859375 10.171875 
Q 46.921875 13.96875 46.921875 20.515625 
Q 46.921875 27.09375 42.890625 30.859375 
Q 38.875 34.625 31.78125 34.625 
z
M 21.921875 38.8125 
Q 15.578125 40.375 12.03125 44.71875 
Q 8.5 49.078125 8.5 55.328125 
Q 8.5 64.0625 14.71875 69.140625 
Q 20.953125 74.21875 31.78125 74.21875 
Q 42.671875 74.21875 48.875 69.140625 
Q 55.078125 64.0625 55.078125 55.328125 
Q 55.078125 49.078125 51.53125 44.71875 
Q 48 40.375 41.703125 38.8125 
Q 48.828125 37.15625 52.796875 32.3125 
Q 56.78125 27.484375 56.78125 20.515625 
Q 56.78125 9.90625 50.3125 4.234375 
Q 43.84375 -1.421875 31.78125 -1.421875 
Q 19.734375 -1.421875 13.25 4.234375 
Q 6.78125 9.90625 6.78125 20.515625 
Q 6.78125 27.484375 10.78125 32.3125 
Q 14.796875 37.15625 21.921875 38.8125 
z
M 18.3125 54.390625 
Q 18.3125 48.734375 21.84375 45.5625 
Q 25.390625 42.390625 31.78125 42.390625 
Q 38.140625 42.390625 41.71875 45.5625 
Q 45.3125 48.734375 45.3125 54.390625 
Q 45.3125 60.0625 41.71875 63.234375 
Q 38.140625 66.40625 31.78125 66.40625 
Q 25.390625 66.40625 21.84375 63.234375 
Q 18.3125 60.0625 18.3125 54.390625 
z
" id="DejaVuSans-38"/>
      </defs>
      <g transform="translate(333.754125 323.702125)scale(0.12 -0.12)">
       <use xlink:href="#DejaVuSans-30"/>
       <use x="63.623047" xlink:href="#DejaVuSans-2e"/>
       <use x="95.410156" xlink:href="#DejaVuSans-38"/>
      </g>
     </g>
    </g>
    <g id="xtick_6">
     <g id="line2d_6">
      <g>
       <use style="stroke:#000000;stroke-width:0.8;" x="414.72" xlink:href="#mb14e0e4c82" y="307.584"/>
      </g>
     </g>
     <g id="text_6">
      <!-- 1.0 -->
      <defs>
       <path d="M 12.40625 8.296875 
L 28.515625 8.296875 
L 28.515625 63.921875 
L 10.984375 60.40625 
L 10.984375 69.390625 
L 28.421875 72.90625 
L 38.28125 72.90625 
L 38.28125 8.296875 
L 54.390625 8.296875 
L 54.390625 0 
L 12.40625 0 
z
" id="DejaVuSans-31"/>
      </defs>
      <g transform="translate(405.178125 323.702125)scale(0.12 -0.12)">
       <use xlink:href="#DejaVuSans-31"/>
       <use x="63.623047" xlink:href="#DejaVuSans-2e"/>
       <use x="95.410156" xlink:href="#DejaVuSans-30"/>
      </g>
     </g>
    </g>
    <g id="text_7">
     <!-- Recall -->
     <defs>
      <path d="M 44.390625 34.1875 
Q 47.5625 33.109375 50.5625 29.59375 
Q 53.5625 26.078125 56.59375 19.921875 
L 66.609375 0 
L 56 0 
L 46.6875 18.703125 
Q 43.0625 26.03125 39.671875 28.421875 
Q 36.28125 30.8125 30.421875 30.8125 
L 19.671875 30.8125 
L 19.671875 0 
L 9.8125 0 
L 9.8125 72.90625 
L 32.078125 72.90625 
Q 44.578125 72.90625 50.734375 67.671875 
Q 56.890625 62.453125 56.890625 51.90625 
Q 56.890625 45.015625 53.6875 40.46875 
Q 50.484375 35.9375 44.390625 34.1875 
z
M 19.671875 64.796875 
L 19.671875 38.921875 
L 32.078125 38.921875 
Q 39.203125 38.921875 42.84375 42.21875 
Q 46.484375 45.515625 46.484375 51.90625 
Q 46.484375 58.296875 42.84375 61.546875 
Q 39.203125 64.796875 32.078125 64.796875 
z
" id="DejaVuSans-52"/>
      <path d="M 56.203125 29.59375 
L 56.203125 25.203125 
L 14.890625 25.203125 
Q 15.484375 15.921875 20.484375 11.0625 
Q 25.484375 6.203125 34.421875 6.203125 
Q 39.59375 6.203125 44.453125 7.46875 
Q 49.3125 8.734375 54.109375 11.28125 
L 54.109375 2.78125 
Q 49.265625 0.734375 44.1875 -0.34375 
Q 39.109375 -1.421875 33.890625 -1.421875 
Q 20.796875 -1.421875 13.15625 6.1875 
Q 5.515625 13.8125 5.515625 26.8125 
Q 5.515625 40.234375 12.765625 48.109375 
Q 20.015625 56 32.328125 56 
Q 43.359375 56 49.78125 48.890625 
Q 56.203125 41.796875 56.203125 29.59375 
z
M 47.21875 32.234375 
Q 47.125 39.59375 43.09375 43.984375 
Q 39.0625 48.390625 32.421875 48.390625 
Q 24.90625 48.390625 20.390625 44.140625 
Q 15.875 39.890625 15.1875 32.171875 
z
" id="DejaVuSans-65"/>
      <path d="M 48.78125 52.59375 
L 48.78125 44.1875 
Q 44.96875 46.296875 41.140625 47.34375 
Q 37.3125 48.390625 33.40625 48.390625 
Q 24.65625 48.390625 19.8125 42.84375 
Q 14.984375 37.3125 14.984375 27.296875 
Q 14.984375 17.28125 19.8125 11.734375 
Q 24.65625 6.203125 33.40625 6.203125 
Q 37.3125 6.203125 41.140625 7.25 
Q 44.96875 8.296875 48.78125 10.40625 
L 48.78125 2.09375 
Q 45.015625 0.34375 40.984375 -0.53125 
Q 36.96875 -1.421875 32.421875 -1.421875 
Q 20.0625 -1.421875 12.78125 6.34375 
Q 5.515625 14.109375 5.515625 27.296875 
Q 5.515625 40.671875 12.859375 48.328125 
Q 20.21875 56 33.015625 56 
Q 37.15625 56 41.109375 55.140625 
Q 45.0625 54.296875 48.78125 52.59375 
z
" id="DejaVuSans-63"/>
      <path d="M 34.28125 27.484375 
Q 23.390625 27.484375 19.1875 25 
Q 14.984375 22.515625 14.984375 16.5 
Q 14.984375 11.71875 18.140625 8.90625 
Q 21.296875 6.109375 26.703125 6.109375 
Q 34.1875 6.109375 38.703125 11.40625 
Q 43.21875 16.703125 43.21875 25.484375 
L 43.21875 27.484375 
z
M 52.203125 31.203125 
L 52.203125 0 
L 43.21875 0 
L 43.21875 8.296875 
Q 40.140625 3.328125 35.546875 0.953125 
Q 30.953125 -1.421875 24.3125 -1.421875 
Q 15.921875 -1.421875 10.953125 3.296875 
Q 6 8.015625 6 15.921875 
Q 6 25.140625 12.171875 29.828125 
Q 18.359375 34.515625 30.609375 34.515625 
L 43.21875 34.515625 
L 43.21875 35.40625 
Q 43.21875 41.609375 39.140625 45 
Q 35.0625 48.390625 27.6875 48.390625 
Q 23 48.390625 18.546875 47.265625 
Q 14.109375 46.140625 10.015625 43.890625 
L 10.015625 52.203125 
Q 14.9375 54.109375 19.578125 55.046875 
Q 24.21875 56 28.609375 56 
Q 40.484375 56 46.34375 49.84375 
Q 52.203125 43.703125 52.203125 31.203125 
z
" id="DejaVuSans-61"/>
      <path d="M 9.421875 75.984375 
L 18.40625 75.984375 
L 18.40625 0 
L 9.421875 0 
z
" id="DejaVuSans-6c"/>
     </defs>
     <g transform="translate(217.993125 339.315875)scale(0.12 -0.12)">
      <use xlink:href="#DejaVuSans-52"/>
      <use x="69.419922" xlink:href="#DejaVuSans-65"/>
      <use x="130.943359" xlink:href="#DejaVuSans-63"/>
      <use x="185.923828" xlink:href="#DejaVuSans-61"/>
      <use x="247.203125" xlink:href="#DejaVuSans-6c"/>
      <use x="274.986328" xlink:href="#DejaVuSans-6c"/>
     </g>
    </g>
   </g>
   <g id="matplotlib.axis_2">
    <g id="ytick_1">
     <g id="line2d_7">
      <defs>
       <path d="M 0 0 
L -3.5 0 
" id="m02e89b1eff" style="stroke:#000000;stroke-width:0.8;"/>
      </defs>
      <g>
       <use style="stroke:#000000;stroke-width:0.8;" x="57.6" xlink:href="#m02e89b1eff" y="307.584"/>
      </g>
     </g>
     <g id="text_8">
      <!-- 0.0 -->
      <g transform="translate(31.51625 312.143062)scale(0.12 -0.12)">
       <use xlink:href="#DejaVuSans-30"/>
       <use x="63.623047" xlink:href="#DejaVuSans-2e"/>
       <use x="95.410156" xlink:href="#DejaVuSans-30"/>
      </g>
     </g>
    </g>
    <g id="ytick_2">
     <g id="line2d_8">
      <g>
       <use style="stroke:#000000;stroke-width:0.8;" x="57.6" xlink:href="#m02e89b1eff" y="256.896"/>
      </g>
     </g>
     <g id="text_9">
      <!-- 0.2 -->
      <g transform="translate(31.51625 261.455062)scale(0.12 -0.12)">
       <use xlink:href="#DejaVuSans-30"/>
       <use x="63.623047" xlink:href="#DejaVuSans-2e"/>
       <use x="95.410156" xlink:href="#DejaVuSans-32"/>
      </g>
     </g>
    </g>
    <g id="ytick_3">
     <g id="line2d_9">
      <g>
       <use style="stroke:#000000;stroke-width:0.8;" x="57.6" xlink:href="#m02e89b1eff" y="206.208"/>
      </g>
     </g>
     <g id="text_10">
      <!-- 0.4 -->
      <g transform="translate(31.51625 210.767063)scale(0.12 -0.12)">
       <use xlink:href="#DejaVuSans-30"/>
       <use x="63.623047" xlink:href="#DejaVuSans-2e"/>
       <use x="95.410156" xlink:href="#DejaVuSans-34"/>
      </g>
     </g>
    </g>
    <g id="ytick_4">
     <g id="line2d_10">
      <g>
       <use style="stroke:#000000;stroke-width:0.8;" x="57.6" xlink:href="#m02e89b1eff" y="155.52"/>
      </g>
     </g>
     <g id="text_11">
      <!-- 0.6 -->
      <g transform="translate(31.51625 160.079062)scale(0.12 -0.12)">
       <use xlink:href="#DejaVuSans-30"/>
       <use x="63.623047" xlink:href="#DejaVuSans-2e"/>
       <use x="95.410156" xlink:href="#DejaVuSans-36"/>
      </g>
     </g>
    </g>
    <g id="ytick_5">
     <g id="line2d_11">
      <g>
       <use style="stroke:#000000;stroke-width:0.8;" x="57.6" xlink:href="#m02e89b1eff" y="104.832"/>
      </g>
     </g>
     <g id="text_12">
      <!-- 0.8 -->
      <g transform="translate(31.51625 109.391063)scale(0.12 -0.12)">
       <use xlink:href="#DejaVuSans-30"/>
       <use x="63.623047" xlink:href="#DejaVuSans-2e"/>
       <use x="95.410156" xlink:href="#DejaVuSans-38"/>
      </g>
     </g>
    </g>
    <g id="ytick_6">
     <g id="line2d_12">
      <g>
       <use style="stroke:#000000;stroke-width:0.8;" x="57.6" xlink:href="#m02e89b1eff" y="54.144"/>
      </g>
     </g>
     <g id="text_13">
      <!-- 1.0 -->
      <g transform="translate(31.51625 58.703063)scale(0.12 -0.12)">
       <use xlink:href="#DejaVuSans-31"/>
       <use x="63.623047" xlink:href="#DejaVuSans-2e"/>
       <use x="95.410156" xlink:href="#DejaVuSans-30"/>
      </g>
     </g>
    </g>
    <g id="text_14">
     <!-- Precision -->
     <defs>
      <path d="M 19.671875 64.796875 
L 19.671875 37.40625 
L 32.078125 37.40625 
Q 38.96875 37.40625 42.71875 40.96875 
Q 46.484375 44.53125 46.484375 51.125 
Q 46.484375 57.671875 42.71875 61.234375 
Q 38.96875 64.796875 32.078125 64.796875 
z
M 9.8125 72.90625 
L 32.078125 72.90625 
Q 44.34375 72.90625 50.609375 67.359375 
Q 56.890625 61.8125 56.890625 51.125 
Q 56.890625 40.328125 50.609375 34.8125 
Q 44.34375 29.296875 32.078125 29.296875 
L 19.671875 29.296875 
L 19.671875 0 
L 9.8125 0 
z
" id="DejaVuSans-50"/>
      <path d="M 41.109375 46.296875 
Q 39.59375 47.171875 37.8125 47.578125 
Q 36.03125 48 33.890625 48 
Q 26.265625 48 22.1875 43.046875 
Q 18.109375 38.09375 18.109375 28.8125 
L 18.109375 0 
L 9.078125 0 
L 9.078125 54.6875 
L 18.109375 54.6875 
L 18.109375 46.1875 
Q 20.953125 51.171875 25.484375 53.578125 
Q 30.03125 56 36.53125 56 
Q 37.453125 56 38.578125 55.875 
Q 39.703125 55.765625 41.0625 55.515625 
z
" id="DejaVuSans-72"/>
      <path d="M 9.421875 54.6875 
L 18.40625 54.6875 
L 18.40625 0 
L 9.421875 0 
z
M 9.421875 75.984375 
L 18.40625 75.984375 
L 18.40625 64.59375 
L 9.421875 64.59375 
z
" id="DejaVuSans-69"/>
      <path d="M 44.28125 53.078125 
L 44.28125 44.578125 
Q 40.484375 46.53125 36.375 47.5 
Q 32.28125 48.484375 27.875 48.484375 
Q 21.1875 48.484375 17.84375 46.4375 
Q 14.5 44.390625 14.5 40.28125 
Q 14.5 37.15625 16.890625 35.375 
Q 19.28125 33.59375 26.515625 31.984375 
L 29.59375 31.296875 
Q 39.15625 29.25 43.1875 25.515625 
Q 47.21875 21.78125 47.21875 15.09375 
Q 47.21875 7.46875 41.1875 3.015625 
Q 35.15625 -1.421875 24.609375 -1.421875 
Q 20.21875 -1.421875 15.453125 -0.5625 
Q 10.6875 0.296875 5.421875 2 
L 5.421875 11.28125 
Q 10.40625 8.6875 15.234375 7.390625 
Q 20.0625 6.109375 24.8125 6.109375 
Q 31.15625 6.109375 34.5625 8.28125 
Q 37.984375 10.453125 37.984375 14.40625 
Q 37.984375 18.0625 35.515625 20.015625 
Q 33.0625 21.96875 24.703125 23.78125 
L 21.578125 24.515625 
Q 13.234375 26.265625 9.515625 29.90625 
Q 5.8125 33.546875 5.8125 39.890625 
Q 5.8125 47.609375 11.28125 51.796875 
Q 16.75 56 26.8125 56 
Q 31.78125 56 36.171875 55.265625 
Q 40.578125 54.546875 44.28125 53.078125 
z
" id="DejaVuSans-73"/>
      <path d="M 30.609375 48.390625 
Q 23.390625 48.390625 19.1875 42.75 
Q 14.984375 37.109375 14.984375 27.296875 
Q 14.984375 17.484375 19.15625 11.84375 
Q 23.34375 6.203125 30.609375 6.203125 
Q 37.796875 6.203125 41.984375 11.859375 
Q 46.1875 17.53125 46.1875 27.296875 
Q 46.1875 37.015625 41.984375 42.703125 
Q 37.796875 48.390625 30.609375 48.390625 
z
M 30.609375 56 
Q 42.328125 56 49.015625 48.375 
Q 55.71875 40.765625 55.71875 27.296875 
Q 55.71875 13.875 49.015625 6.21875 
Q 42.328125 -1.421875 30.609375 -1.421875 
Q 18.84375 -1.421875 12.171875 6.21875 
Q 5.515625 13.875 5.515625 27.296875 
Q 5.515625 40.765625 12.171875 48.375 
Q 18.84375 56 30.609375 56 
z
" id="DejaVuSans-6f"/>
      <path d="M 54.890625 33.015625 
L 54.890625 0 
L 45.90625 0 
L 45.90625 32.71875 
Q 45.90625 40.484375 42.875 44.328125 
Q 39.84375 48.1875 33.796875 48.1875 
Q 26.515625 48.1875 22.3125 43.546875 
Q 18.109375 38.921875 18.109375 30.90625 
L 18.109375 0 
L 9.078125 0 
L 9.078125 54.6875 
L 18.109375 54.6875 
L 18.109375 46.1875 
Q 21.34375 51.125 25.703125 53.5625 
Q 30.078125 56 35.796875 56 
Q 45.21875 56 50.046875 50.171875 
Q 54.890625 44.34375 54.890625 33.015625 
z
" id="DejaVuSans-6e"/>
     </defs>
     <g transform="translate(25.020625 201.533625)rotate(-90)scale(0.12 -0.12)">
      <use xlink:href="#DejaVuSans-50"/>
      <use x="60.287109" xlink:href="#DejaVuSans-72"/>
      <use x="101.369141" xlink:href="#DejaVuSans-65"/>
      <use x="162.892578" xlink:href="#DejaVuSans-63"/>
      <use x="217.873047" xlink:href="#DejaVuSans-69"/>
      <use x="245.65625" xlink:href="#DejaVuSans-73"/>
      <use x="297.755859" xlink:href="#DejaVuSans-69"/>
      <use x="325.539062" xlink:href="#DejaVuSans-6f"/>
      <use x="386.720703" xlink:href="#DejaVuSans-6e"/>
     </g>
    </g>
   </g>
   <g id="line2d_13">
    <path clip-path="url(#p506108b52a)" d="M 414.72 256.896 
L 106.0096 256.896 
L 106.0096 151.424 
L 105.6128 151.424 
L 105.6128 151.917807 
L 105.6128 150.321231 
L 105.216 150.321231 
L 105.216 150.81699 
L 104.8192 150.81699 
L 104.8192 151.317886 
L 104.8192 149.681592 
L 104.4224 149.681592 
L 104.4224 150.184421 
L 104.4224 149.351619 
L 104.0256 149.351619 
L 104.0256 149.858043 
L 104.0256 148.162065 
L 103.6288 148.162065 
L 103.6288 148.67027 
L 103.232 148.67027 
L 103.232 149.184 
L 102.8352 149.184 
L 102.8352 149.703344 
L 102.4384 149.703344 
L 102.4384 150.228396 
L 102.4384 149.359028 
L 102.0416 149.359028 
L 102.0416 149.888 
L 101.6448 149.888 
L 101.6448 150.422883 
L 101.248 150.422883 
L 101.248 150.963775 
L 101.248 150.078915 
L 100.8512 150.078915 
L 100.8512 150.624 
L 100.4544 150.624 
L 100.4544 151.175314 
L 100.0576 151.175314 
L 100.0576 151.732966 
L 99.6608 151.732966 
L 99.6608 152.297064 
L 99.6608 151.394233 
L 99.264 151.394233 
L 99.264 151.962947 
L 98.8672 151.962947 
L 98.8672 152.538353 
L 98.8672 151.620923 
L 98.4704 151.620923 
L 98.4704 152.201143 
L 98.4704 150.32906 
L 98.0736 150.32906 
L 98.0736 150.912 
L 98.0736 149.956683 
L 97.6768 149.956683 
L 97.6768 150.544491 
L 97.28 150.544491 
L 97.28 151.139556 
L 96.8832 151.139556 
L 96.8832 151.742012 
L 96.8832 150.768 
L 96.4864 150.768 
L 96.4864 151.375698 
L 96.0896 151.375698 
L 96.0896 151.991089 
L 96.0896 148.979613 
L 95.6928 148.979613 
L 95.6928 149.595429 
L 95.6928 148.562824 
L 95.296 148.562824 
L 95.296 149.184 
L 95.296 148.134993 
L 94.8992 148.134993 
L 94.8992 148.7616 
L 94.5024 148.7616 
L 94.5024 149.396617 
L 94.5024 148.327784 
L 94.1056 148.327784 
L 94.1056 148.96849 
L 94.1056 147.882082 
L 93.7088 147.882082 
L 93.7088 148.528552 
L 93.312 148.528552 
L 93.312 149.184 
L 93.312 146.953014 
L 92.9152 146.953014 
L 92.9152 147.611234 
L 92.5184 147.611234 
L 92.5184 148.278857 
L 92.1216 148.278857 
L 92.1216 148.956086 
L 91.7248 148.956086 
L 91.7248 149.64313 
L 91.328 149.64313 
L 91.328 150.340204 
L 91.328 149.184 
L 90.9312 149.184 
L 90.9312 149.888 
L 90.5344 149.888 
L 90.5344 150.602507 
L 90.1376 150.602507 
L 90.1376 151.327759 
L 90.1376 148.942168 
L 89.7408 148.942168 
L 89.7408 149.671385 
L 89.344 149.671385 
L 89.344 150.411907 
L 88.9472 150.411907 
L 88.9472 151.164 
L 88.9472 144.805463 
L 88.5504 144.805463 
L 88.5504 145.54859 
L 88.1536 145.54859 
L 88.1536 146.304 
L 87.7568 146.304 
L 87.7568 147.072 
L 87.36 147.072 
L 87.36 147.852908 
L 86.9632 147.852908 
L 86.9632 148.647051 
L 86.5664 148.647051 
L 86.5664 149.454769 
L 86.1696 149.454769 
L 86.1696 150.276414 
L 86.1696 147.516632 
L 85.7728 147.516632 
L 85.7728 148.342938 
L 85.376 148.342938 
L 85.376 149.184 
L 84.9792 149.184 
L 84.9792 150.040216 
L 84.5824 150.040216 
L 84.5824 150.912 
L 84.1856 150.912 
L 84.1856 151.79978 
L 84.1856 150.357333 
L 83.7888 150.357333 
L 83.7888 151.256523 
L 83.7888 149.781736 
L 83.392 149.781736 
L 83.392 150.692571 
L 83.392 149.184 
L 82.9952 149.184 
L 82.9952 150.106718 
L 82.5984 150.106718 
L 82.5984 151.047529 
L 82.5984 149.497663 
L 82.2016 149.497663 
L 82.2016 150.4512 
L 81.8048 150.4512 
L 81.8048 151.424 
L 81.408 151.424 
L 81.408 152.416653 
L 81.408 150.81699 
L 81.0112 150.81699 
L 81.0112 151.824 
L 80.6144 151.824 
L 80.6144 152.852211 
L 80.2176 152.852211 
L 80.2176 153.902298 
L 79.8208 153.902298 
L 79.8208 154.974968 
L 79.424 154.974968 
L 79.424 156.070957 
L 79.424 154.405978 
L 79.0272 154.405978 
L 79.0272 155.52 
L 79.0272 153.811416 
L 78.6304 153.811416 
L 78.6304 154.944 
L 78.2336 154.944 
L 78.2336 156.102621 
L 77.8368 156.102621 
L 77.8368 157.288186 
L 77.44 157.288186 
L 77.44 158.501647 
L 77.0432 158.501647 
L 77.0432 159.744 
L 76.6464 159.744 
L 76.6464 161.016289 
L 76.2496 161.016289 
L 76.2496 162.31961 
L 75.8528 162.31961 
L 75.8528 163.655111 
L 75.8528 161.856 
L 75.456 161.856 
L 75.456 163.219443 
L 75.0592 163.219443 
L 75.0592 164.617846 
L 74.6624 164.617846 
L 74.6624 166.052571 
L 74.2656 166.052571 
L 74.2656 167.525053 
L 74.2656 148.711164 
L 73.8688 148.711164 
L 73.8688 150.144 
L 73.8688 147.721846 
L 73.472 147.721846 
L 73.472 149.184 
L 73.472 144.074323 
L 73.0752 144.074323 
L 73.0752 145.54859 
L 72.6784 145.54859 
L 72.6784 147.072 
L 72.6784 141.537103 
L 72.2816 141.537103 
L 72.2816 143.070316 
L 72.2816 140.132571 
L 71.8848 140.132571 
L 71.8848 141.696 
L 71.488 141.696 
L 71.488 143.317333 
L 71.488 130.176 
L 71.0912 130.176 
L 71.0912 131.727673 
L 70.6944 131.727673 
L 70.6944 133.344 
L 70.6944 125.768348 
L 70.2976 125.768348 
L 70.2976 127.36 
L 69.9008 127.36 
L 69.9008 129.024 
L 69.9008 120.521143 
L 69.504 120.521143 
L 69.504 122.140098 
L 69.1072 122.140098 
L 69.1072 123.84 
L 68.7104 123.84 
L 68.7104 125.627077 
L 68.3136 125.627077 
L 68.3136 127.508211 
L 68.3136 117.504 
L 67.9168 117.504 
L 67.9168 119.314286 
L 67.9168 113.776941 
L 67.52 113.776941 
L 67.52 115.584 
L 67.1232 115.584 
L 67.1232 117.504 
L 66.7264 117.504 
L 66.7264 119.547871 
L 66.7264 113.28 
L 66.3296 113.28 
L 66.3296 115.319172 
L 65.9328 115.319172 
L 65.9328 117.504 
L 65.9328 110.464 
L 65.536 110.464 
L 65.536 112.630154 
L 65.536 104.832 
L 65.1392 104.832 
L 65.1392 106.944 
L 64.7424 106.944 
L 64.7424 109.239652 
L 64.3456 109.239652 
L 64.3456 111.744 
L 63.9488 111.744 
L 63.9488 114.486857 
L 63.552 114.486857 
L 63.552 117.504 
L 63.552 107.499789 
L 63.1552 107.499789 
L 63.1552 110.464 
L 62.7584 110.464 
L 62.7584 113.776941 
L 62.3616 113.776941 
L 62.3616 117.504 
L 62.3616 104.832 
L 61.9648 104.832 
L 61.9648 108.452571 
L 61.568 108.452571 
L 61.568 112.630154 
L 61.1712 112.630154 
L 61.1712 117.504 
L 60.7744 117.504 
L 60.7744 123.264 
L 60.7744 104.832 
L 60.3776 104.832 
L 60.3776 110.464 
L 59.9808 110.464 
L 59.9808 117.504 
L 59.584 117.504 
L 59.584 126.555429 
L 59.584 96.384 
L 59.1872 96.384 
L 59.1872 104.832 
L 58.7904 104.832 
L 58.7904 117.504 
L 58.3936 117.504 
L 58.3936 138.624 
L 57.9968 138.624 
L 57.9968 180.864 
L 57.6 180.864 
L 57.6 307.584 
L 57.6 54.144 
L 57.6 54.144 
" style="fill:none;opacity:0.2;stroke:#0000ff;stroke-linecap:square;stroke-width:1.5;"/>
   </g>
   <g id="patch_3">
    <path d="M 57.6 307.584 
L 57.6 41.472 
" style="fill:none;stroke:#000000;stroke-linecap:square;stroke-linejoin:miter;stroke-width:0.8;"/>
   </g>
   <g id="patch_4">
    <path d="M 414.72 307.584 
L 414.72 41.472 
" style="fill:none;stroke:#000000;stroke-linecap:square;stroke-linejoin:miter;stroke-width:0.8;"/>
   </g>
   <g id="patch_5">
    <path d="M 57.6 307.584 
L 414.72 307.584 
" style="fill:none;stroke:#000000;stroke-linecap:square;stroke-linejoin:miter;stroke-width:0.8;"/>
   </g>
   <g id="patch_6">
    <path d="M 57.6 41.472 
L 414.72 41.472 
" style="fill:none;stroke:#000000;stroke-linecap:square;stroke-linejoin:miter;stroke-width:0.8;"/>
   </g>
   <g id="text_15">
    <!-- AP=0.26 -->
    <defs>
     <path d="M 34.1875 63.1875 
L 20.796875 26.90625 
L 47.609375 26.90625 
z
M 28.609375 72.90625 
L 39.796875 72.90625 
L 67.578125 0 
L 57.328125 0 
L 50.6875 18.703125 
L 17.828125 18.703125 
L 11.1875 0 
L 0.78125 0 
z
" id="DejaVuSans-41"/>
     <path d="M 10.59375 45.40625 
L 73.1875 45.40625 
L 73.1875 37.203125 
L 10.59375 37.203125 
z
M 10.59375 25.484375 
L 73.1875 25.484375 
L 73.1875 17.1875 
L 10.59375 17.1875 
z
" id="DejaVuSans-3d"/>
    </defs>
    <g transform="translate(210.050625 35.472)scale(0.12 -0.12)">
     <use xlink:href="#DejaVuSans-41"/>
     <use x="68.408203" xlink:href="#DejaVuSans-50"/>
     <use x="128.710938" xlink:href="#DejaVuSans-3d"/>
     <use x="212.5" xlink:href="#DejaVuSans-30"/>
     <use x="276.123047" xlink:href="#DejaVuSans-2e"/>
     <use x="307.910156" xlink:href="#DejaVuSans-32"/>
     <use x="371.533203" xlink:href="#DejaVuSans-36"/>
    </g>
   </g>
  </g>
 </g>
 <defs>
  <clipPath id="p506108b52a">
   <rect height="266.112" width="357.12" x="57.6" y="41.472"/>
  </clipPath>
 </defs>
</svg>
